<mxfile host="app.diagrams.net" modified="2024-06-25T11:47:06.151Z" agent="Mozilla/5.0 (X11; Linux x86_64) AppleWebKit/537.36 (KHTML, like Gecko) Chrome/121.0.0.0 Safari/537.36" version="24.6.2" etag="K7L87jIzQJrM5DWnheSb" type="github">
  <diagram name="PÃ¡gina-1" id="tpEHTFUpxy3wLmJy6Rbm">
    <mxGraphModel>
      <root>
        <mxCell id="0" />
        <mxCell id="1" parent="0" />
      </root>
    </mxGraphModel>
  </diagram>
</mxfile>
